<svg width="170" height="205" viewBox="0 0 170 205" fill="none" xmlns="http://www.w3.org/2000/svg">
<path fill-rule="evenodd" clip-rule="evenodd" d="M88.5268 103.004C76.3713 100.497 65.5119 93.728 57.9083 83.918C50.3012 74.1036 46.4544 61.8924 47.0625 49.4899C47.6706 37.0875 52.6936 25.3112 61.2243 16.2881C69.755 7.26488 81.1703 1.30249 93.5192 0L93.5214 0.0219474C93.5889 0.00756713 93.6589 0 93.7307 0H132.893C133.784 0 134.23 1.07714 133.601 1.70711L119.831 15.4763C119.644 15.6639 119.389 15.7692 119.124 15.7692H95.0961C86.4519 16.681 78.5401 20.6969 72.5686 27.0132C66.597 33.3294 63.0809 41.5728 62.6553 50.2545C62.2296 58.9362 64.9224 67.484 70.2474 74.3541C74.9542 80.4268 81.3309 84.9883 88.6275 87.1762C95.3552 88.6697 102.255 91.4866 107.879 95.4519C113.567 99.463 118.393 104.575 122.071 110.484C124.922 115.065 127.038 120.053 128.352 125.267V70.9615L144.121 86.7307V150.596H128.352V150.509H113.371C114.544 145.781 114.631 137.106 113.87 132.293C113.11 127.481 111.391 122.87 108.817 118.733C106.242 114.596 102.864 111.018 98.8821 108.211C95.8139 106.047 92.2012 104.208 88.5268 103.004Z" fill="#FFFCF2"/>
<path fill-rule="evenodd" clip-rule="evenodd" d="M154.23 0L170 16.1417V151.732V152.539V155.606H169.862C169.458 161.275 168.17 166.85 166.038 172.117C163.423 178.58 159.59 184.452 154.758 189.398C149.926 194.345 144.189 198.268 137.876 200.945C131.562 203.622 124.795 205 117.961 205C111.127 205 104.361 203.622 98.047 200.945C91.7334 198.268 85.9968 194.345 81.1645 189.398C76.3323 184.452 72.4992 178.58 69.884 172.117C67.2689 165.654 65.9229 158.728 65.9229 151.732H81.5344C81.5344 156.629 82.4766 161.478 84.3072 166.002C86.1378 170.526 88.821 174.636 92.2036 178.099C95.5861 181.561 99.6018 184.308 104.021 186.182C108.441 188.055 113.178 189.02 117.961 189.02C122.745 189.02 127.482 188.055 131.901 186.182C136.321 184.308 140.336 181.561 143.719 178.099C147.102 174.636 149.785 170.526 151.615 166.002C153.013 162.549 153.892 158.907 154.23 155.198V0ZM143.98 0L128.211 15.7692V63.0769L143.98 78.8461V0Z" fill="#FFFCF2"/>
<path d="M12 180.44V179.92C13.0667 179.413 13.6 178.147 13.6 176.12C13.6 174.893 13.4933 173.987 13.28 173.4C13.0667 172.787 12.6933 172.373 12.16 172.16C11.6533 171.947 10.9333 171.84 10 171.84H2.2L0 166.2H11.36C13.7067 166.2 15.6667 166.507 17.24 167.12C18.8133 167.707 19.9867 168.707 20.76 170.12C21.56 171.507 21.96 173.413 21.96 175.84C21.96 178.64 21.3467 180.787 20.12 182.28L23.12 195H15.12L12 180.44ZM10 195H2.2V173.84H10V195ZM36.9203 175.32V166.2H44.7203V175.32H36.9203ZM32.9203 195H25.1203V166.2H32.9203V177.28H44.7203V183.64H32.9203V195ZM44.7203 185.68V195H36.9203V185.68H44.7203Z" fill="#FFFCF2"/>
</svg>
